<?xml version="1.0" standalone="no"?>
<!DOCTYPE svg PUBLIC "-//W3C//DTD SVG 20010904//EN"
 "http://www.w3.org/TR/2001/REC-SVG-20010904/DTD/svg10.dtd">
<svg version="1.0" xmlns="http://www.w3.org/2000/svg"
 width="380.000000pt" height="160.000000pt" viewBox="0 0 380.000000 160.000000"
 preserveAspectRatio="xMidYMid meet">
<metadata>
Created by potrace 1.16, written by Peter Selinger 2001-2019
</metadata>
<g transform="translate(0.000000,160.000000) scale(0.100000,-0.100000)"
fill="#000000" stroke="none">
<path d="M1272 1428 c-8 -8 -12 -50 -12 -125 l0 -113 -180 0 c-153 0 -180 -2
-180 -15 0 -13 27 -15 180 -15 l180 0 0 -360 0 -360 -180 0 c-153 0 -180 -2
-180 -15 0 -13 27 -15 180 -15 l180 0 0 -113 c0 -75 4 -117 12 -125 19 -19
695 -17 773 3 182 46 345 175 423 335 44 89 72 182 72 237 l0 33 180 0 c173 0
180 1 180 20 0 19 -7 20 -179 20 l-178 0 -6 60 c-20 192 -170 402 -350 490
-139 68 -158 70 -552 70 -260 0 -354 -3 -363 -12z m798 -46 c232 -77 408 -296
435 -542 8 -74 -16 -206 -53 -283 -63 -135 -177 -248 -307 -307 -114 -52 -143
-55 -510 -55 l-340 0 -3 595 c-1 327 0 601 3 608 4 11 70 13 358 10 328 -4
357 -6 417 -26z"/>
<path d="M358 1373 c-106 -238 -156 -358 -152 -365 13 -21 37 -3 59 47 l24 55
111 0 110 0 25 -55 c21 -50 46 -69 58 -47 3 4 -35 97 -83 207 -101 229 -114
243 -152 158z m86 -106 c21 -50 41 -98 43 -104 4 -10 -17 -13 -86 -13 -50 0
-91 2 -91 5 0 12 84 205 89 205 3 0 23 -42 45 -93z"/>
<path d="M3337 1045 c-104 -37 -152 -158 -116 -290 15 -53 75 -112 122 -119
20 -3 53 -8 72 -12 30 -4 41 -14 66 -55 20 -31 38 -49 50 -49 28 0 23 23 -14
71 l-33 44 42 40 c47 45 64 91 64 175 -1 98 -55 177 -138 200 -48 13 -68 12
-115 -5z m141 -51 c43 -28 62 -73 62 -147 0 -117 -47 -177 -138 -177 -92 0
-142 60 -142 170 0 94 32 150 96 170 36 11 91 3 122 -16z"/>
<path d="M256 654 c-12 -31 -7 -379 6 -392 17 -17 190 -16 231 2 50 21 72 52
72 101 0 46 -33 95 -64 95 -10 0 -5 9 16 25 39 31 49 71 29 119 -22 52 -62 66
-185 66 -81 0 -100 -3 -105 -16z m234 -44 c25 -25 26 -71 1 -101 -17 -21 -29
-24 -105 -28 l-86 -3 0 76 0 76 85 0 c72 0 88 -3 105 -20z m-28 -170 c42 -12
58 -34 58 -79 0 -51 -38 -71 -136 -71 l-84 0 0 80 0 80 63 0 c34 0 79 -5 99
-10z"/>
</g>
</svg>
