<?xml version="1.0" standalone="no"?>
<!DOCTYPE svg PUBLIC "-//W3C//DTD SVG 20010904//EN"
 "http://www.w3.org/TR/2001/REC-SVG-20010904/DTD/svg10.dtd">
<svg version="1.0" xmlns="http://www.w3.org/2000/svg"
 width="380.000000pt" height="160.000000pt" viewBox="0 0 380.000000 160.000000"
 preserveAspectRatio="xMidYMid meet">
<metadata>
Created by potrace 1.16, written by Peter Selinger 2001-2019
</metadata>
<g transform="translate(0.000000,160.000000) scale(0.100000,-0.100000)"
fill="#000000" stroke="none">
<path d="M1153 1435 c-22 -15 -23 -23 -23 -130 l0 -115 -177 -2 c-110 -2 -178
-7 -178 -13 0 -6 68 -11 178 -13 l177 -2 0 -360 0 -360 -175 -2 c-235 -4 -235
-22 0 -26 l175 -2 0 -115 c0 -111 1 -115 25 -131 21 -14 67 -15 402 -12 423 5
441 7 568 83 390 234 392 885 4 1131 -24 15 -78 39 -119 53 -74 25 -80 25
-455 29 -337 3 -383 1 -402 -13z m828 -51 c91 -27 151 -64 219 -133 73 -74
117 -151 151 -261 33 -106 33 -274 0 -380 -34 -111 -78 -187 -151 -261 -68
-69 -154 -118 -240 -138 -27 -6 -198 -11 -417 -11 l-373 0 0 600 0 600 378 0
c319 0 387 -3 433 -16z"/>
<path d="M378 1413 c-23 -27 -179 -393 -173 -404 15 -23 38 -5 61 46 l25 55
108 0 107 0 27 -55 c25 -51 48 -68 61 -46 6 9 -157 385 -176 409 -14 16 -22
15 -40 -5z m67 -153 c20 -47 39 -91 42 -97 4 -10 -17 -13 -87 -13 -50 0 -90 4
-88 8 62 152 84 200 89 194 4 -4 23 -45 44 -92z"/>
<path d="M3338 1051 c-83 -27 -128 -99 -128 -204 0 -126 67 -217 159 -217 49
0 78 -16 111 -64 30 -44 52 -57 65 -36 8 12 -17 60 -44 84 l-21 19 35 30 c53
44 77 98 77 177 1 128 -66 210 -175 216 -29 2 -64 -1 -79 -5z m141 -60 c33
-18 61 -86 61 -150 0 -102 -55 -171 -135 -171 -85 0 -133 51 -142 151 -14 152
92 236 216 170z"/>
<path d="M2487 889 c-37 -28 -54 -88 -37 -129 19 -45 56 -70 105 -70 47 0 91
27 105 66 9 23 11 24 187 26 150 3 178 5 178 18 0 13 -28 15 -178 18 -176 2
-178 3 -187 26 -23 63 -120 88 -173 45z m120 -41 c46 -43 13 -118 -53 -118
-35 0 -74 37 -74 70 0 10 9 29 21 44 26 33 73 35 106 4z"/>
<path d="M255 658 c-3 -7 -4 -101 -3 -208 l3 -195 100 -3 c123 -4 169 8 195
51 11 18 20 42 20 55 0 37 -27 90 -49 97 -21 6 -21 7 9 41 40 46 41 92 1 136
l-29 33 -121 3 c-95 3 -122 1 -126 -10z m230 -53 c46 -45 22 -107 -47 -120
-18 -4 -56 -5 -83 -3 l-50 3 -3 73 -3 72 81 0 c73 0 83 -3 105 -25z m-15 -168
c41 -14 59 -52 44 -94 -13 -39 -48 -53 -136 -53 l-78 0 0 73 c0 41 3 77 7 80
11 11 125 7 163 -6z"/>
</g>
</svg>
