<?xml version="1.0" standalone="no"?>
<!DOCTYPE svg PUBLIC "-//W3C//DTD SVG 20010904//EN"
 "http://www.w3.org/TR/2001/REC-SVG-20010904/DTD/svg10.dtd">
<svg version="1.0" xmlns="http://www.w3.org/2000/svg"
 width="380.000000pt" height="160.000000pt" viewBox="0 0 380.000000 160.000000"
 preserveAspectRatio="xMidYMid meet">
<metadata>
Created by potrace 1.16, written by Peter Selinger 2001-2019
</metadata>
<g transform="translate(0.000000,160.000000) scale(0.100000,-0.100000)"
fill="#000000" stroke="none">
<path d="M1081 1418 c-12 -33 -5 -45 64 -118 34 -36 67 -75 74 -87 l12 -23
-226 0 c-193 0 -225 -2 -225 -15 0 -13 33 -15 239 -15 l238 0 31 -67 c87 -189
88 -397 2 -580 l-29 -63 -240 0 c-234 0 -241 -1 -241 -20 0 -19 7 -20 225 -20
l226 0 -12 -22 c-7 -13 -40 -52 -74 -88 -69 -73 -76 -85 -64 -117 l8 -23 380
0 c364 0 383 1 438 21 175 65 333 234 454 483 31 64 52 119 51 137 -1 51 -113
265 -190 365 -102 133 -197 209 -315 252 -55 21 -73 22 -438 22 l-380 0 -8
-22z m813 -37 c151 -53 318 -228 427 -447 56 -114 57 -151 7 -254 -111 -227
-280 -407 -434 -461 -49 -17 -87 -19 -421 -19 l-367 0 51 52 c160 166 235 339
235 548 0 209 -75 382 -235 548 l-51 52 367 0 c334 0 372 -2 421 -19z"/>
<path d="M382 1418 c-19 -24 -181 -401 -176 -409 13 -22 36 -4 59 46 l24 55
110 0 110 0 25 -56 c19 -42 30 -55 43 -52 10 2 17 11 15 19 -5 21 -164 382
-175 397 -5 6 -13 12 -17 12 -4 0 -12 -6 -18 -12z m62 -151 c21 -50 41 -98 43
-104 4 -10 -17 -13 -87 -13 -84 0 -92 2 -86 18 22 59 81 192 86 192 3 0 22
-42 44 -93z"/>
<path d="M3337 1045 c-103 -36 -152 -158 -117 -287 21 -73 89 -128 159 -128
47 0 74 -17 105 -66 17 -27 35 -44 47 -44 28 0 23 23 -15 73 l-34 44 35 28
c49 39 73 96 73 175 0 108 -51 186 -138 210 -48 13 -68 12 -115 -5z m143 -54
c40 -28 60 -78 60 -149 0 -112 -49 -172 -138 -172 -92 0 -142 60 -142 170 0
94 32 150 96 170 38 12 93 3 124 -19z"/>
<path d="M2480 881 c-16 -16 -32 -40 -36 -55 -16 -64 38 -136 101 -136 49 0
90 23 107 60 l13 30 177 0 c171 0 178 1 178 20 0 19 -7 20 -178 20 l-177 0
-13 30 c-29 64 -123 81 -172 31z m129 -37 c12 -15 21 -34 21 -44 0 -10 -9 -29
-21 -44 -41 -52 -129 -23 -129 44 0 67 88 96 129 44z"/>
<path d="M257 663 c-9 -8 -9 -376 -1 -397 9 -23 187 -23 243 0 76 30 92 126
30 179 l-31 25 25 20 c33 26 42 69 23 113 -22 54 -57 67 -179 67 -57 0 -107
-3 -110 -7z m233 -53 c25 -25 26 -71 2 -101 -16 -19 -31 -23 -105 -27 l-87 -5
0 77 0 76 85 0 c72 0 88 -3 105 -20z m-28 -170 c42 -12 58 -34 58 -79 0 -51
-38 -71 -136 -71 l-84 0 0 80 0 80 63 0 c34 0 79 -5 99 -10z"/>
</g>
</svg>
