<?xml version="1.0" standalone="no"?>
<!DOCTYPE svg PUBLIC "-//W3C//DTD SVG 20010904//EN"
 "http://www.w3.org/TR/2001/REC-SVG-20010904/DTD/svg10.dtd">
<svg version="1.0" xmlns="http://www.w3.org/2000/svg"
 width="360.000000pt" height="160.000000pt" viewBox="0 0 360.000000 160.000000"
 preserveAspectRatio="xMidYMid meet">
<metadata>
Created by potrace 1.16, written by Peter Selinger 2001-2019
</metadata>
<g transform="translate(0.000000,160.000000) scale(0.100000,-0.100000)"
fill="#000000" stroke="none">
<path d="M1172 1368 c-9 -9 -12 -85 -12 -280 l0 -268 -180 0 c-173 0 -180 -1
-180 -20 0 -19 7 -20 180 -20 l180 0 0 -269 c0 -290 2 -301 52 -287 13 3 237
126 498 273 456 257 475 269 478 299 2 18 -3 36 -11 42 -30 25 -962 542 -977
542 -9 0 -21 -5 -28 -12z m521 -300 c373 -209 465 -264 455 -274 -16 -15 -939
-534 -950 -534 -4 0 -8 243 -8 541 0 511 1 541 18 535 9 -4 227 -125 485 -268z"/>
<path d="M376 1037 c-27 -41 -176 -389 -170 -398 14 -23 37 -5 59 46 l25 55
109 0 110 0 25 -55 c23 -50 46 -69 60 -47 5 8 -158 387 -176 410 -15 18 -26
15 -42 -11z m73 -156 c23 -52 41 -96 41 -98 0 -2 -41 -3 -91 -3 -69 0 -90 3
-86 13 56 140 82 196 88 190 4 -5 26 -50 48 -102z"/>
<path d="M3139 1051 c-48 -16 -78 -43 -104 -94 -69 -140 7 -327 133 -327 53 0
86 -19 115 -65 18 -28 36 -45 48 -45 28 0 23 23 -15 73 l-34 44 35 28 c55 43
76 103 71 195 -5 89 -28 136 -83 170 -38 24 -125 34 -166 21z m141 -60 c86
-60 79 -260 -10 -306 -38 -19 -103 -19 -141 1 -81 41 -94 232 -21 298 43 38
123 41 172 7z"/>
<path d="M2254 876 c-28 -28 -34 -42 -34 -76 0 -57 50 -110 104 -110 50 0 91
23 108 60 l13 30 177 0 c171 0 178 1 178 20 0 19 -7 20 -178 20 l-177 0 -13
30 c-17 37 -58 60 -108 60 -28 0 -44 -8 -70 -34z m131 -26 c42 -46 10 -120
-52 -120 -42 0 -73 30 -73 70 0 62 84 95 125 50z"/>
</g>
</svg>
