<?xml version="1.0" standalone="no"?>
<!DOCTYPE svg PUBLIC "-//W3C//DTD SVG 20010904//EN"
 "http://www.w3.org/TR/2001/REC-SVG-20010904/DTD/svg10.dtd">
<svg version="1.0" xmlns="http://www.w3.org/2000/svg"
 width="380.000000pt" height="160.000000pt" viewBox="0 0 380.000000 160.000000"
 preserveAspectRatio="xMidYMid meet">
<metadata>
Created by potrace 1.16, written by Peter Selinger 2001-2019
</metadata>
<g transform="translate(0.000000,160.000000) scale(0.100000,-0.100000)"
fill="#000000" stroke="none">
<path d="M1212 1428 c-22 -22 -14 -65 16 -88 31 -25 122 -130 122 -142 0 -4
-101 -8 -225 -8 -193 0 -225 -2 -225 -15 0 -13 33 -15 241 -15 l240 0 30 -65
c86 -189 89 -377 9 -569 l-32 -76 -244 0 c-237 0 -244 -1 -244 -20 0 -19 7
-20 225 -20 124 0 225 -4 225 -8 0 -12 -91 -117 -123 -142 -23 -18 -28 -29
-25 -59 l3 -36 401 0 400 0 80 39 c150 73 328 283 419 493 l34 78 181 3 c171
2 180 3 180 22 0 19 -9 20 -180 22 l-181 3 -34 78 c-58 134 -132 244 -240 353
-82 83 -114 108 -179 140 l-80 39 -391 3 c-301 2 -393 0 -403 -10z m750 -29
c180 -38 372 -226 494 -484 24 -51 44 -103 44 -115 0 -12 -20 -64 -44 -115
-122 -258 -314 -446 -494 -484 -62 -13 -718 -15 -726 -3 -3 5 15 29 40 53 240
232 306 587 163 872 -40 80 -105 171 -163 226 -25 24 -43 48 -40 53 8 12 664
10 726 -3z"/>
<path d="M387 1418 c-19 -15 -188 -398 -181 -410 13 -21 37 -3 59 47 l24 55
111 0 110 0 25 -56 c18 -42 29 -55 42 -52 10 2 17 11 15 19 -6 26 -165 384
-176 397 -10 10 -15 10 -29 0z m57 -151 c21 -50 41 -98 43 -104 4 -10 -17 -13
-86 -13 -50 0 -91 2 -91 5 0 12 84 205 89 205 3 0 23 -42 45 -93z"/>
<path d="M3337 1045 c-103 -36 -152 -158 -117 -287 21 -73 89 -128 159 -128
47 0 79 -20 106 -67 17 -27 33 -43 45 -43 29 0 25 22 -13 71 l-33 44 42 40
c47 45 64 91 64 175 -1 98 -55 177 -138 200 -48 13 -68 12 -115 -5z m141 -51
c43 -28 62 -73 62 -147 0 -117 -47 -177 -138 -177 -92 0 -142 60 -142 170 0
94 32 150 96 170 36 11 91 3 122 -16z"/>
<path d="M257 663 c-9 -8 -9 -376 -1 -397 5 -13 24 -16 105 -16 148 0 204 31
204 115 0 46 -33 95 -64 95 -10 0 -5 9 16 25 39 31 49 71 29 119 -22 52 -62
66 -184 66 -54 0 -102 -3 -105 -7z m233 -53 c25 -25 26 -71 1 -101 -17 -21
-29 -24 -105 -28 l-86 -3 0 76 0 76 85 0 c72 0 88 -3 105 -20z m-28 -170 c42
-12 58 -34 58 -79 0 -51 -38 -71 -136 -71 l-84 0 0 80 0 80 63 0 c34 0 79 -5
99 -10z"/>
</g>
</svg>
