<?xml version="1.0" standalone="no"?>
<!DOCTYPE svg PUBLIC "-//W3C//DTD SVG 20010904//EN"
 "http://www.w3.org/TR/2001/REC-SVG-20010904/DTD/svg10.dtd">
<svg version="1.0" xmlns="http://www.w3.org/2000/svg"
 width="380.000000pt" height="160.000000pt" viewBox="0 0 380.000000 160.000000"
 preserveAspectRatio="xMidYMid meet">
<metadata>
Created by potrace 1.16, written by Peter Selinger 2001-2019
</metadata>
<g transform="translate(0.000000,160.000000) scale(0.100000,-0.100000)"
fill="#000000" stroke="none">
<path d="M1212 1428 c-22 -22 -14 -65 16 -88 31 -25 122 -130 122 -142 0 -4
-13 -8 -29 -8 -23 0 -45 17 -112 86 -93 95 -116 111 -131 96 -7 -7 16 -35 71
-88 44 -42 81 -81 81 -85 0 -5 -74 -9 -165 -9 -139 0 -165 -2 -165 -15 0 -12
29 -15 182 -17 l183 -3 32 -54 c59 -99 78 -172 78 -301 0 -127 -18 -197 -75
-297 l-30 -53 -185 0 c-178 0 -185 -1 -185 -20 0 -19 7 -20 165 -20 91 0 165
-4 165 -9 0 -4 -37 -43 -81 -85 -55 -53 -78 -81 -71 -88 16 -16 40 2 130 96
67 70 88 86 112 86 17 0 30 -4 30 -8 0 -12 -91 -117 -123 -142 -23 -18 -28
-29 -25 -59 l3 -36 401 0 400 0 80 39 c150 73 328 283 419 493 l34 78 181 3
c171 2 180 3 180 22 0 19 -9 20 -180 22 l-181 3 -34 78 c-58 134 -132 244
-240 353 -82 83 -114 108 -179 140 l-80 39 -391 3 c-301 2 -393 0 -403 -10z
m820 -52 c75 -31 175 -103 233 -168 107 -122 230 -339 230 -408 0 -69 -123
-286 -230 -408 -58 -65 -158 -137 -233 -168 -56 -23 -63 -24 -424 -24 -203 0
-368 3 -368 6 0 3 30 38 66 77 283 305 283 729 0 1034 -36 39 -66 74 -66 77 0
3 165 6 368 6 361 0 368 -1 424 -24z m-621 -281 c86 -189 89 -377 9 -569 -31
-74 -33 -76 -66 -76 -19 0 -34 2 -34 4 0 2 16 37 35 78 86 181 85 360 -5 546
l-39 82 35 0 c34 0 37 -3 65 -65z"/>
<path d="M388 1418 c-20 -16 -190 -397 -182 -409 13 -22 36 -4 59 46 l24 55
110 0 110 0 25 -56 c19 -42 30 -55 43 -52 10 2 17 11 15 19 -6 26 -165 384
-176 397 -10 10 -15 10 -28 0z m56 -151 c21 -50 41 -98 43 -104 4 -10 -17 -13
-87 -13 -84 0 -92 2 -86 18 22 59 81 192 86 192 3 0 22 -42 44 -93z"/>
<path d="M3337 1045 c-103 -36 -152 -158 -117 -287 21 -73 89 -128 159 -128
47 0 74 -17 105 -66 17 -27 35 -44 47 -44 28 0 23 23 -15 73 l-34 44 35 28
c49 39 73 96 73 175 0 108 -51 186 -138 210 -48 13 -68 12 -115 -5z m143 -54
c40 -28 60 -78 60 -149 0 -112 -49 -172 -138 -172 -92 0 -142 60 -142 170 0
94 32 150 96 170 38 12 93 3 124 -19z"/>
<path d="M257 663 c-9 -8 -9 -376 -1 -397 9 -23 187 -23 243 0 76 30 92 126
30 179 l-31 25 25 20 c54 43 39 138 -27 165 -36 15 -226 22 -239 8z m233 -53
c25 -25 26 -71 1 -101 -17 -21 -29 -24 -105 -28 l-86 -3 0 76 0 76 85 0 c72 0
88 -3 105 -20z m-28 -170 c42 -12 58 -34 58 -79 0 -51 -38 -71 -136 -71 l-84
0 0 80 0 80 63 0 c34 0 79 -5 99 -10z"/>
</g>
</svg>
